Coordinates
version=1
nRows=98
nColumns=6
inDegrees=yes

Units are S.I. units (second, meters, Newtons, ...)
If the header above contains a line with 'inDegrees', this indicates whether rotational values are in degrees (yes) or radians (no).

endheader
time	foot_tx	hip_flexion_r	knee_angle_r	ankle_angle_r	lumbar
     44.60000000	      0.24472142	     57.91598928	    -86.89984940	      5.99546789	    -36.73667500
     44.61000000	      0.24472170	     57.96190605	    -86.90442935	      6.00428799	    -36.77717870
     44.62000000	      0.24474539	     58.07268467	    -86.90826671	      6.00423355	    -36.75544919
     44.63000000	      0.24476705	     58.13111913	    -86.90777668	      6.00773872	    -36.79223867
     44.64000000	      0.24476602	     58.23776127	    -86.91445860	      6.01201259	    -36.78174927
     44.65000000	      0.24477324	     58.32406120	    -86.91666657	      6.01553437	    -36.79797566
     44.66000000	      0.24478114	     58.41386408	    -86.91795964	      6.01816136	    -36.81601052
     44.67000000	      0.24478839	     58.50767065	    -86.91829895	      6.01987338	    -36.83587318
     44.68000000	      0.24479383	     58.60604682	    -86.91738247	      6.02041611	    -36.85779753
     44.69000000	      0.24479689	     58.70950243	    -86.91487274	      6.01946818	    -36.88210211
     44.70000000	      0.24479674	     58.81844824	    -86.91050522	      6.01677185	    -36.90931314
     44.71000000	      0.24479273	     58.93323842	    -86.90427864	      6.01232378	    -36.93980912
     44.72000000	      0.24478581	     59.05482527	    -86.89564764	      6.00569272	    -36.97373857
     44.73000000	      0.24477583	     59.18332528	    -86.88457542	      5.99695542	    -37.01198246
     44.74000000	      0.24476573	     59.28331946	    -86.86776726	      5.98803528	    -37.09302021
     44.75000000	      0.24474539	     59.46371645	    -86.85570554	      5.97392792	    -37.10338295
     44.76000000	      0.24472606	     59.57806003	    -86.83500266	      5.96222106	    -37.19876303
     44.77000000	      0.24469791	     59.77090169	    -86.81760971	      5.94512057	    -37.22891755
     44.78000000	      0.24467072	     59.90277240	    -86.79077291	      5.92956823	    -37.34249842
     44.79000000	      0.24463533	     60.11072227	    -86.76730017	      5.90925189	    -37.39677495
     44.80000000	      0.24460110	     60.26409576	    -86.73416113	      5.89005666	    -37.53158387
     44.81000000	      0.24455703	     60.49110165	    -86.70420303	      5.86656880	    -37.61330093
     44.82000000	      0.24451251	     60.67031907	    -86.66617442	      5.84452343	    -37.77182285
     44.83000000	      0.24445826	     60.91478726	    -86.63065162	      5.81867060	    -37.88936676
     44.84000000	      0.24440140	     61.12123132	    -86.58934969	      5.79471368	    -38.07654744
     44.85000000	      0.24433442	     61.34455558	    -86.54743924	      5.77040839	    -38.27544352
     44.86000000	      0.24426322	     61.58353434	    -86.50562418	      5.74574596	    -38.48888222
     44.87000000	      0.24418575	     61.83762269	    -86.46464443	      5.72152914	    -38.71761811
     44.88000000	      0.24410677	     62.10417890	    -86.42442813	      5.69799256	    -38.96473179
     44.89000000	      0.24402339	     62.38331537	    -86.38611688	      5.67616057	    -39.23016725
     44.90000000	      0.24393758	     62.67394119	    -86.35007340	      5.65656055	    -39.51499305
     44.91000000	      0.24385882	     62.97706251	    -86.31601494	      5.63877850	    -39.81805533
     44.92000000	      0.24377096	     63.24492226	    -86.28389483	      5.62945423	    -40.18818151
     44.93000000	      0.24369865	     63.58248430	    -86.25753288	      5.61835474	    -40.51533326
     44.94000000	      0.24362767	     63.93200307	    -86.23555404	      5.61260535	    -40.85812505
     44.95000000	      0.24356116	     64.29391935	    -86.21804615	      5.61281885	    -41.21462553
     44.96000000	      0.24349929	     64.66857979	    -86.20536645	      5.61988768	    -41.58282775
     44.97000000	      0.24344209	     65.05650717	    -86.19771836	      5.63442515	    -41.96079814
     44.98000000	      0.24338989	     65.45862344	    -86.19504245	      5.65660143	    -42.34662757
     44.99000000	      0.24334345	     65.87660455	    -86.19684004	      5.68593184	    -42.73829000
     45.00000000	      0.24330199	     66.35735780	    -86.20573058	      5.71849365	    -43.08657694
     45.01000000	      0.24327063	     66.86250591	    -86.21785453	      5.75577894	    -43.43247420
     45.02000000	      0.24324812	     67.40662784	    -86.23392558	      5.79675017	    -43.76001322
     45.03000000	      0.24323154	     67.99126418	    -86.25418682	      5.84233331	    -44.06541765
     45.04000000	      0.24322970	     68.60327186	    -86.27745446	      5.89415068	    -44.35975170
     45.05000000	      0.24323397	     69.24151197	    -86.30460330	      5.95471571	    -44.64098145
     45.06000000	      0.24324451	     69.90213964	    -86.33547840	      6.02529036	    -44.91156356
     45.07000000	      0.24326052	     70.59083498	    -86.37022320	      6.10581807	    -45.16497539
     45.08000000	      0.24327729	     71.30930147	    -86.41050382	      6.19763378	    -45.39862525
     45.09000000	      0.24328471	     72.06690261	    -86.45749610	      6.30133466	    -45.60138316
     45.10000000	      0.24328832	     72.86679593	    -86.51130190	      6.41697352	    -45.76787417
     45.11000000	      0.24328224	     73.70819851	    -86.57244934	      6.54627609	    -45.89535286
     45.12000000	      0.24326354	     74.58815520	    -86.63926225	      6.68989622	    -45.98288139
     45.13000000	      0.24322861	     75.49948977	    -86.71141179	      6.85008080	    -46.03223391
     45.14000000	      0.24318057	     76.43070730	    -86.78316764	      7.02604819	    -46.05071251
     45.15000000	      0.24312218	     77.37374297	    -86.85037857	      7.21777647	    -46.04091421
     45.16000000	      0.24305449	     78.31837654	    -86.90882545	      7.42542700	    -46.00737479
     45.17000000	      0.24298796	     79.25204592	    -86.95245428	      7.64761239	    -45.95813162
     45.18000000	      0.24292649	     80.16696310	    -86.97638430	      7.88341991	    -45.89576862
     45.19000000	      0.24287565	     81.05709385	    -86.97875210	      8.13252640	    -45.82058422
     45.20000000	      0.24283869	     81.92388482	    -86.95693332	      8.39366023	    -45.72520278
     45.21000000	      0.24281631	     82.76466095	    -86.91179584	      8.66699398	    -45.60584886
     45.22000000	      0.24280932	     83.58053650	    -86.84416167	      8.95152505	    -45.45449744
     45.23000000	      0.24281900	     84.36931001	    -86.75965627	      9.24787205	    -45.26605285
     45.24000000	      0.24284987	     85.11789963	    -86.65947944	      9.55437097	    -45.04787923
     45.25000000	      0.24290945	     85.81649065	    -86.54832746	      9.86996318	    -44.80322981
     45.26000000	      0.24300148	     86.44640600	    -86.43061280	     10.19423860	    -44.54520262
     45.27000000	      0.24313053	     86.98293501	    -86.30686042	     10.52540571	    -44.29397506
     45.28000000	      0.24329187	     87.40573117	    -86.17884078	     10.86293625	    -44.06519551
     45.29000000	      0.24347815	     87.70161436	    -86.04477388	     11.20461983	    -43.86857085
     45.30000000	      0.24368223	     87.86497908	    -85.90114013	     11.54807128	    -43.70568973
     45.31000000	      0.24389247	     87.90177101	    -85.74272646	     11.89000359	    -43.56980412
     45.32000000	      0.24409946	     87.81657254	    -85.56275011	     12.22772810	    -43.45558681
     45.33000000	      0.24430075	     87.66919112	    -85.35204409	     12.55184625	    -43.30136441
     45.34000000	      0.24448540	     87.38870199	    -85.10417011	     12.86864182	    -43.18996883
     45.35000000	      0.24465499	     87.06010444	    -84.81131406	     13.16664531	    -43.03283376
     45.36000000	      0.24480643	     86.67279893	    -84.46857537	     13.44564069	    -42.84878660
     45.37000000	      0.24494365	     86.23447399	    -84.07063656	     13.70216389	    -42.63746353
     45.38000000	      0.24506620	     85.75509886	    -83.61557446	     13.93436250	    -42.39542031
     45.39000000	      0.24517982	     85.24594782	    -83.10205253	     14.13959875	    -42.11780778
     45.40000000	      0.24528249	     84.71191167	    -82.53112350	     14.31772688	    -41.80592310
     45.41000000	      0.24538167	     84.16612613	    -81.90280591	     14.46630828	    -41.45193322
     45.42000000	      0.24547562	     83.61389595	    -81.22107586	     14.58634642	    -41.05433103
     45.43000000	      0.24556948	     83.08056706	    -80.48707146	     14.67538663	    -40.58971472
     45.44000000	      0.24564740	     82.51770844	    -79.70708386	     14.74228317	    -40.11390696
     45.45000000	      0.24573278	     81.90446930	    -78.87643380	     14.78452207	    -39.65560316
     45.46000000	      0.24582043	     81.30676470	    -77.99916823	     14.79773232	    -39.14061309
     45.47000000	      0.24589472	     80.62525999	    -77.07911185	     14.79446197	    -38.67985320
     45.48000000	      0.24597319	     79.90053718	    -76.11453790	     14.76784510	    -38.22942109
     45.49000000	      0.24605213	     79.10381444	    -75.10824171	     14.72183969	    -37.82166658
     45.50000000	      0.24613173	     78.23021667	    -74.06245660	     14.65762642	    -37.46262513
     45.51000000	      0.24621208	     77.28240719	    -72.98138845	     14.57673659	    -37.15037619
     45.52000000	      0.24629428	     76.27469730	    -71.87092304	     14.48046260	    -36.86984247
     45.53000000	      0.24637668	     75.22925431	    -70.73881940	     14.37067110	    -36.59808007
     45.54000000	      0.24645935	     74.17024049	    -69.59036129	     14.24780764	    -36.31044250
     45.55000000	      0.24654503	     73.10175885	    -68.43067063	     14.11380193	    -36.00344044
     45.56000000	      0.24663243	     72.03035097	    -67.26244187	     13.96969808	    -35.67211853
     45.57000000	      0.24672288	     70.95220496	    -66.08729556	     13.81675953	    -35.32264258
